<svg width="505" height="144" viewBox="0 0 505 144" fill="none" xmlns="http://www.w3.org/2000/svg">
<path d="M174.29 80.1788C169.917 77.7491 167.649 75.8054 167.649 73.0517C167.649 69.6501 170.727 67.3824 175.586 67.3824C181.255 67.3824 186.277 69.8121 186.277 69.8121L190.164 57.6636C190.164 57.6636 186.601 54.748 175.748 54.748C160.846 54.748 150.479 63.3329 150.479 75.3194C150.479 82.1226 155.339 87.3059 161.818 91.0315C167.001 93.9471 168.945 96.0528 168.945 99.1305C168.945 102.37 166.353 104.962 161.494 104.962C154.367 104.962 147.564 101.236 147.564 101.236L143.352 113.385C143.352 113.385 149.669 117.596 160.198 117.596C175.586 117.596 186.601 109.983 186.601 96.3768C186.601 89.0877 180.931 83.9044 174.29 80.1788ZM235.519 54.586C227.905 54.586 222.074 58.1496 217.377 63.6569L217.053 63.4949L223.694 29.1552H206.686L190.164 116.462H207.172L212.841 86.658C215.109 75.3194 220.94 68.5163 226.286 68.5163C230.173 68.5163 231.631 71.108 231.631 74.8335C231.631 77.2632 231.307 80.0169 230.821 82.4466L224.342 116.624H241.35L247.991 81.3127C248.801 77.5872 249.287 73.2137 249.287 70.1361C249.449 60.4173 244.427 54.586 235.519 54.586ZM288 54.586C267.429 54.586 253.822 73.2137 253.822 93.7851C253.822 107.067 261.921 117.758 277.309 117.758C297.557 117.758 311.163 99.6164 311.163 78.559C311.163 66.2486 304.036 54.586 288 54.586ZM279.577 104.638C273.746 104.638 271.316 99.6164 271.316 93.4612C271.316 83.7424 276.337 67.7064 285.732 67.7064C291.725 67.7064 293.831 72.8897 293.831 77.9111C293.831 88.6018 288.648 104.638 279.577 104.638ZM354.898 54.586C343.397 54.586 336.918 64.7908 336.918 64.7908H336.594L337.566 55.5579H322.502C321.692 61.7131 320.396 71.108 319.1 78.2351L307.276 140.759H324.283L328.981 115.49H329.305C329.305 115.49 332.868 117.758 339.348 117.758C359.433 117.758 372.553 97.1867 372.553 76.4533C372.553 64.9527 367.37 54.586 354.898 54.586ZM338.538 104.8C334.164 104.8 331.411 102.37 331.411 102.37L334.326 86.3341C336.27 75.6434 341.939 68.6783 347.77 68.6783C352.954 68.6783 354.574 73.5377 354.574 78.0731C354.736 89.0877 348.094 104.8 338.538 104.8ZM396.85 30.1271C391.343 30.1271 387.132 34.5005 387.132 40.0079C387.132 45.0292 390.371 48.5928 395.231 48.5928H395.555C400.9 48.5928 405.435 45.0292 405.597 38.712C405.435 33.6906 402.034 30.1271 396.85 30.1271ZM373.039 116.462H390.047L401.71 56.0438H384.54L373.039 116.462ZM445.12 55.8819H433.296L433.944 52.9662C434.916 47.135 438.479 41.9516 444.148 41.9516C447.226 41.9516 449.656 42.7615 449.656 42.7615L453.057 29.3172C453.057 29.3172 450.142 27.8594 443.824 27.8594C437.831 27.8594 431.676 29.6412 427.141 33.5287C421.309 38.55 418.556 45.6771 417.26 52.8043L416.774 55.7199H408.837L406.407 68.5163H414.344L404.949 116.462H421.957L431.028 68.6783H442.853L445.12 55.8819ZM486.263 56.0438C486.263 56.0438 475.573 82.9325 470.713 97.6726H470.389C470.065 92.9752 466.178 56.0438 466.178 56.0438H448.198L458.403 111.603C458.727 112.899 458.565 113.547 458.079 114.519C456.135 118.406 452.733 122.132 448.846 124.723C445.606 127.153 442.043 128.611 439.127 129.583L443.824 143.999C447.226 143.189 454.515 140.435 460.508 134.766C468.283 127.477 475.411 116.138 482.862 100.912L503.757 56.0438H486.263Z" fill="white"/>
<path d="M81.3138 140.436L123.591 131.204C123.591 131.204 108.364 28.0225 108.202 27.3746C108.04 26.7267 107.555 26.2407 106.907 26.2407C106.421 26.2407 95.5681 25.4308 95.5681 25.4308L87.3071 17.1699C87.1451 17.0079 86.8211 16.8459 86.6592 16.6839L81.3138 140.436ZM84.7154 16.6839C84.5534 16.6839 84.3914 16.6839 84.2295 16.8459C84.0675 16.8459 82.6097 17.3318 80.018 18.1417C77.5883 10.8526 73.0529 4.37345 65.2778 4.37345H64.6299C62.5242 1.29584 59.7705 0 57.5028 0C39.3611 0 30.6142 22.6772 28.0225 34.1777C21.0574 36.2835 16.036 37.9033 15.3881 38.0652C11.5006 39.3611 11.3386 39.3611 10.8526 43.0866C10.3667 46.0022 0 125.534 0 125.534L79.3701 140.436L84.7154 16.6839ZM64.144 22.1912V23.0011C59.7705 24.297 54.9111 25.9168 50.0517 27.3746C52.8054 17.0079 57.8268 11.9865 62.2002 10.0427C63.4961 12.7964 64.144 16.8459 64.144 22.1912ZM57.0169 4.85939C57.8268 4.85939 58.6367 5.18335 59.2846 5.66929C53.4533 8.42295 47.2981 15.2261 44.5444 28.9944C40.6569 30.1282 36.9314 31.4241 33.5298 32.396C36.6074 22.0292 43.8965 4.85939 57.0169 4.85939ZM60.0945 66.2497C60.0945 66.2497 55.3971 63.82 49.7278 63.82C41.3048 63.82 40.8189 69.1654 40.8189 70.4612C40.8189 77.7503 59.7705 80.5039 59.7705 97.5118C59.7705 110.956 51.1856 119.541 39.847 119.541C26.0787 119.541 19.1136 110.956 19.1136 110.956L22.8391 98.8076C22.8391 98.8076 30.1282 104.963 36.1215 104.963C40.171 104.963 41.7908 101.885 41.7908 99.4556C41.7908 89.8988 26.2407 89.5748 26.2407 73.8628C26.2407 60.7424 35.6355 47.946 54.7492 47.946C62.0382 47.946 65.7638 50.0517 65.7638 50.0517L60.0945 66.2497ZM67.3836 9.07087C71.4331 9.5568 74.0247 14.0922 75.8065 19.4376C73.8628 20.0855 71.4331 20.7334 69.0034 21.5433V20.0855C69.0034 15.5501 68.3555 11.9865 67.3836 9.07087Z" fill="white"/>
</svg>
