<svg width="577" height="145" viewBox="0 0 577 145" fill="none" xmlns="http://www.w3.org/2000/svg">
<path fill-rule="evenodd" clip-rule="evenodd" d="M24.5051 0.356935H120.381C126.764 0.355083 132.886 2.88933 137.4 7.402C141.914 11.9146 144.45 18.0358 144.45 24.4186V120.288C144.45 133.581 133.674 144.357 120.381 144.357H24.5051C11.2151 144.353 0.443384 133.579 0.443384 120.288V24.4186C0.443384 11.1297 11.2162 0.356935 24.5051 0.356935ZM110.691 118.178C114.885 118.178 118.285 114.778 118.285 110.584L118.264 34.1369C118.264 29.9426 114.864 26.5425 110.67 26.5425H34.2304C32.215 26.5425 30.2823 27.3436 28.8579 28.7693C27.4335 30.1951 26.6342 32.1285 26.636 34.1439V110.584C26.636 114.778 30.0361 118.178 34.2304 118.178H110.691Z" fill="white"/>
<path d="M57.1665 91.8798C54.7725 91.8609 52.8418 89.9149 52.8419 87.5206V57.0032C52.8363 55.8433 53.2931 54.729 54.1114 53.9069C54.9296 53.0848 56.0416 52.6226 57.2015 52.6226H87.761C88.9202 52.6245 90.0309 53.0872 90.8491 53.9089C91.6666 54.7307 92.1242 55.8439 92.1202 57.0032V87.5134C92.1242 88.6726 91.6666 89.7859 90.8491 90.6074C90.0309 91.4295 88.9202 91.8923 87.761 91.8942L57.1665 91.8798Z" fill="white"/>
<path d="M217.725 65.9402C213.267 64.7245 209.047 63.5788 205.771 62.1186C199.706 59.4078 196.884 55.649 196.884 50.2973C196.884 40.1808 206.665 35.6255 216.405 35.6255C225.661 35.6255 233.745 39.4542 239.174 46.3988L239.543 46.8739L247.369 40.7537L246.991 40.2786C239.774 31.0983 229.085 26.0679 216.879 26.0679C208.754 26.0679 201.306 28.2617 195.92 32.251C189.856 36.6875 186.655 43.1221 186.655 50.8003C186.655 68.6513 203.465 73.0034 216.977 76.5039C230.65 80.1091 239.027 82.8477 239.027 93.2714C239.027 103.535 230.727 110.165 217.885 110.165C211.535 110.165 199.777 108.482 192.385 97.1914L192.042 96.6599L183.812 102.62L184.134 103.102C191.12 113.679 203.179 119.751 217.257 119.751C236.379 119.751 249.234 108.956 249.234 92.9015C249.234 74.5265 231.754 69.7686 217.725 65.9402Z" fill="white"/>
<path fill-rule="evenodd" clip-rule="evenodd" d="M311.61 62.2307V52.5683H320.811V144.344H311.61V108.489C306.356 115.692 298.475 119.632 289.211 119.632C271.717 119.632 259.49 105.624 259.49 85.3982C259.49 65.172 271.744 51.0522 289.211 51.0522C298.412 51.0522 306.293 55.0136 311.61 62.2307ZM269.188 85.2862C269.188 104.01 279.912 110.683 289.951 110.683L289.972 110.689C303.114 110.689 311.61 100.629 311.61 85.2862C311.61 69.9437 303.1 60.0229 289.951 60.0229C274.644 60.0229 269.188 73.0737 269.188 85.2862Z" fill="white"/>
<path d="M381.642 52.5679V88.793C381.642 101.474 372.958 110.682 360.997 110.682C351.062 110.682 346.228 104.785 346.228 92.6639V52.5679H337.026V94.5431C337.026 110.263 345.57 119.646 359.879 119.646C368.794 119.646 376.451 115.866 381.649 108.956V118.151H390.851V52.5679H381.642Z" fill="white"/>
<path fill-rule="evenodd" clip-rule="evenodd" d="M408.18 59.4557C414.964 54.125 424.172 51.0718 433.429 51.0718C448.052 51.0718 456.778 58.3448 456.751 70.5433V118.164H447.543V110.891C442.896 116.71 436.175 119.659 427.526 119.659C413.434 119.659 404.672 111.952 404.672 99.5586C404.672 83.4404 419.861 80.9113 426.331 79.8352C427.386 79.6611 428.476 79.4935 429.565 79.3253H429.566L429.605 79.3194C438.445 77.9586 447.57 76.5546 447.57 69.0555C447.57 60.5665 436.552 59.9098 433.178 59.9098C427.218 59.9098 418.8 61.6774 413.078 66.6376L412.554 67.0918L407.747 59.798L408.18 59.4557ZM414.279 99.0415C414.279 109.55 424.172 110.688 428.427 110.688H428.434C437.684 110.688 447.584 105.756 447.564 91.8945V82.4062C443.075 85.2411 436.688 86.3486 430.99 87.3363L430.894 87.3533L428.036 87.8632C418.911 89.5539 414.279 91.7335 414.279 99.0415Z" fill="white"/>
<path d="M510.059 53.8051C507.872 52.2472 504.428 51.3179 500.836 51.3179C493.457 51.4149 486.552 54.9723 482.189 60.9245V52.5406H472.988V118.117H482.189V83.0441C482.189 67.4921 490.93 60.5262 499.585 60.5262C502.119 60.4924 504.627 61.0246 506.929 62.0842L507.551 62.4126L510.464 54.0707L510.059 53.8051Z" fill="white"/>
<path fill-rule="evenodd" clip-rule="evenodd" d="M512.753 85.5363C512.753 65.2476 525.405 51.0718 543.493 51.0718C560.917 51.0718 573.095 63.6546 573.06 81.7006C573.055 83.2696 572.969 84.8366 572.802 86.3957L572.746 86.9337H522.442C522.673 101.375 531.365 110.688 544.702 110.688C552.345 110.688 558.968 107.579 563.349 101.927L563.747 101.41L570.412 107.348L570.042 107.795C565.612 113.196 557.536 119.638 544.192 119.638C525.398 119.638 512.753 105.937 512.753 85.5363ZM543.241 59.9028C532 59.9028 524.028 67.3013 522.785 78.8226H563.335C562.539 69.5582 556.879 59.9028 543.241 59.9028Z" fill="white"/>
</svg>
